<?xml version="1.0" encoding="UTF-8" standalone="no"?><!DOCTYPE svg PUBLIC "-//W3C//DTD SVG 1.1//EN" "http://www.w3.org/Graphics/SVG/1.1/DTD/svg11.dtd"><svg width="100%" height="100%" viewBox="0 0 250 250" version="1.1" xmlns="http://www.w3.org/2000/svg" xmlns:xlink="http://www.w3.org/1999/xlink" xml:space="preserve" style="fill-rule:evenodd;clip-rule:evenodd;stroke-linejoin:round;stroke-miterlimit:1.41421;"><path d="M230.258,0.002l0.258,0.005l0.257,0.008l0.256,0.011l0.255,0.015l0.254,0.017l0.253,0.021l0.253,0.024l0.251,0.028l0.251,0.03l0.249,0.033l0.249,0.037l0.248,0.039l0.246,0.043l0.246,0.045l0.245,0.049l0.485,0.106l0.482,0.117l0.477,0.129l0.472,0.141l0.467,0.152l0.462,0.162l0.456,0.174l0.452,0.185l0.446,0.195l0.44,0.205l0.434,0.216l0.428,0.226l0.422,0.236l0.415,0.246l0.41,0.256l0.402,0.265l0.396,0.274l0.388,0.283l0.382,0.293l0.374,0.301l0.367,0.311l0.359,0.318l0.351,0.327l0.343,0.336l0.336,0.343l0.327,0.351l0.318,0.359l0.311,0.367l0.301,0.374l0.293,0.382l0.283,0.388l0.274,0.396l0.265,0.402l0.256,0.41l0.246,0.415l0.236,0.422l0.226,0.428l0.216,0.434l0.205,0.44l0.195,0.446l0.185,0.452l0.174,0.456l0.162,0.462l0.152,0.467l0.141,0.472l0.129,0.477l0.117,0.482l0.106,0.485l0.049,0.245l0.045,0.246l0.043,0.246l0.039,0.248l0.037,0.249l0.033,0.249l0.03,0.251l0.028,0.251l0.024,0.253l0.021,0.253l0.017,0.254l0.015,0.255l0.011,0.256l0.008,0.257l0.005,0.258l0.002,0.258l0,210l-0.002,0.258l-0.005,0.258l-0.008,0.257l-0.011,0.256l-0.015,0.255l-0.017,0.254l-0.021,0.253l-0.024,0.253l-0.028,0.251l-0.03,0.251l-0.033,0.249l-0.037,0.249l-0.039,0.248l-0.043,0.246l-0.045,0.246l-0.049,0.245l-0.106,0.485l-0.117,0.482l-0.129,0.477l-0.141,0.472l-0.152,0.467l-0.162,0.462l-0.174,0.456l-0.185,0.452l-0.195,0.446l-0.205,0.44l-0.216,0.434l-0.226,0.428l-0.236,0.422l-0.246,0.415l-0.256,0.41l-0.265,0.402l-0.274,0.396l-0.283,0.388l-0.293,0.382l-0.301,0.374l-0.311,0.367l-0.318,0.359l-0.327,0.351l-0.336,0.343l-0.343,0.336l-0.351,0.327l-0.359,0.318l-0.367,0.311l-0.374,0.301l-0.382,0.293l-0.388,0.283l-0.396,0.274l-0.402,0.265l-0.41,0.256l-0.415,0.246l-0.422,0.236l-0.428,0.226l-0.434,0.216l-0.44,0.205l-0.446,0.195l-0.452,0.185l-0.456,0.174l-0.462,0.162l-0.467,0.152l-0.472,0.141l-0.477,0.129l-0.482,0.117l-0.485,0.106l-0.245,0.049l-0.246,0.045l-0.246,0.043l-0.248,0.039l-0.249,0.037l-0.249,0.033l-0.251,0.03l-0.251,0.028l-0.253,0.024l-0.253,0.021l-0.254,0.017l-0.255,0.015l-0.256,0.011l-0.257,0.008l-0.258,0.005l-0.258,0.002l-210,0l-0.258,-0.002l-0.258,-0.005l-0.257,-0.008l-0.256,-0.011l-0.255,-0.015l-0.254,-0.017l-0.253,-0.021l-0.253,-0.024l-0.251,-0.028l-0.251,-0.03l-0.249,-0.033l-0.249,-0.037l-0.248,-0.039l-0.246,-0.043l-0.246,-0.045l-0.245,-0.049l-0.485,-0.106l-0.482,-0.117l-0.477,-0.129l-0.472,-0.141l-0.467,-0.152l-0.462,-0.162l-0.456,-0.174l-0.452,-0.185l-0.446,-0.195l-0.44,-0.205l-0.434,-0.216l-0.428,-0.226l-0.422,-0.236l-0.415,-0.246l-0.41,-0.256l-0.402,-0.265l-0.396,-0.274l-0.388,-0.283l-0.382,-0.293l-0.374,-0.301l-0.367,-0.311l-0.359,-0.318l-0.351,-0.327l-0.343,-0.336l-0.336,-0.343l-0.327,-0.351l-0.318,-0.359l-0.311,-0.367l-0.301,-0.374l-0.293,-0.382l-0.283,-0.388l-0.274,-0.396l-0.265,-0.402l-0.256,-0.41l-0.246,-0.415l-0.236,-0.422l-0.226,-0.428l-0.216,-0.434l-0.205,-0.44l-0.195,-0.446l-0.185,-0.452l-0.174,-0.456l-0.162,-0.462l-0.152,-0.467l-0.141,-0.472l-0.129,-0.477l-0.117,-0.482l-0.106,-0.485l-0.049,-0.245l-0.045,-0.246l-0.043,-0.246l-0.039,-0.248l-0.037,-0.249l-0.033,-0.249l-0.03,-0.251l-0.028,-0.251l-0.024,-0.253l-0.021,-0.253l-0.017,-0.254l-0.015,-0.255l-0.011,-0.256l-0.008,-0.257l-0.005,-0.258l-0.002,-0.258l0,-210l0.002,-0.258l0.005,-0.258l0.008,-0.257l0.011,-0.256l0.015,-0.255l0.017,-0.254l0.021,-0.253l0.024,-0.253l0.028,-0.251l0.03,-0.251l0.033,-0.249l0.037,-0.249l0.039,-0.248l0.043,-0.246l0.045,-0.246l0.049,-0.245l0.106,-0.485l0.117,-0.482l0.129,-0.477l0.141,-0.472l0.152,-0.467l0.162,-0.462l0.174,-0.456l0.185,-0.452l0.195,-0.446l0.205,-0.44l0.216,-0.434l0.226,-0.428l0.236,-0.422l0.246,-0.415l0.256,-0.41l0.265,-0.402l0.274,-0.396l0.283,-0.388l0.293,-0.382l0.301,-0.374l0.311,-0.367l0.318,-0.359l0.327,-0.351l0.336,-0.343l0.343,-0.336l0.351,-0.327l0.359,-0.318l0.367,-0.311l0.374,-0.301l0.382,-0.293l0.388,-0.283l0.396,-0.274l0.402,-0.265l0.41,-0.256l0.415,-0.246l0.422,-0.236l0.428,-0.226l0.434,-0.216l0.44,-0.205l0.446,-0.195l0.452,-0.185l0.456,-0.174l0.462,-0.162l0.467,-0.152l0.472,-0.141l0.477,-0.129l0.482,-0.117l0.485,-0.106l0.245,-0.049l0.246,-0.045l0.246,-0.043l0.248,-0.039l0.249,-0.037l0.249,-0.033l0.251,-0.03l0.251,-0.028l0.253,-0.024l0.253,-0.021l0.254,-0.017l0.255,-0.015l0.256,-0.011l0.257,-0.008l0.258,-0.005l0.258,-0.002l210,0l0.258,0.002Zm-210.23,8.331l-0.179,0.001l-0.156,0.003l-0.148,0.005l-0.15,0.007l-0.152,0.008l-0.147,0.011l-0.15,0.012l-0.145,0.014l-0.146,0.016l-0.148,0.018l-0.147,0.019l-0.146,0.022l-0.141,0.022l-0.144,0.025l-0.145,0.027l-0.116,0.023l-0.306,0.067l-0.278,0.067l-0.278,0.076l-0.274,0.081l-0.27,0.088l-0.268,0.094l-0.265,0.101l-0.262,0.108l-0.259,0.113l-0.256,0.12l-0.253,0.125l-0.25,0.132l-0.246,0.137l-0.241,0.143l-0.239,0.15l-0.236,0.155l-0.231,0.16l-0.227,0.166l-0.224,0.171l-0.218,0.177l-0.216,0.182l-0.211,0.187l-0.205,0.191l-0.201,0.197l-0.197,0.201l-0.191,0.205l-0.188,0.212l-0.182,0.215l-0.176,0.218l-0.172,0.224l-0.165,0.227l-0.16,0.231l-0.155,0.236l-0.149,0.238l-0.144,0.243l-0.138,0.247l-0.131,0.247l-0.126,0.254l-0.119,0.255l-0.114,0.26l-0.106,0.261l-0.101,0.265l-0.095,0.269l-0.088,0.271l-0.081,0.273l-0.075,0.276l-0.068,0.28l-0.068,0.309l-0.023,0.117l-0.026,0.138l-0.025,0.147l-0.023,0.144l-0.021,0.143l-0.019,0.147l-0.018,0.145l-0.016,0.146l-0.014,0.151l-0.012,0.146l-0.01,0.148l-0.009,0.151l-0.007,0.151l-0.005,0.151l-0.003,0.15l-0.001,0.179l0,209.95l0.001,0.179l0.003,0.15l0.005,0.151l0.007,0.15l0.009,0.152l0.01,0.147l0.012,0.147l0.014,0.151l0.016,0.146l0.018,0.145l0.019,0.147l0.021,0.143l0.023,0.144l0.025,0.147l0.026,0.138l0.023,0.117l0.068,0.309l0.068,0.28l0.075,0.276l0.081,0.273l0.088,0.271l0.095,0.269l0.101,0.265l0.106,0.261l0.114,0.259l0.119,0.256l0.126,0.253l0.132,0.249l0.138,0.247l0.143,0.242l0.149,0.238l0.155,0.236l0.16,0.231l0.165,0.227l0.172,0.224l0.176,0.218l0.182,0.215l0.188,0.212l0.191,0.205l0.197,0.201l0.201,0.197l0.205,0.191l0.212,0.188l0.215,0.182l0.218,0.176l0.224,0.172l0.227,0.165l0.231,0.16l0.236,0.155l0.238,0.149l0.242,0.143l0.247,0.138l0.249,0.132l0.253,0.126l0.256,0.119l0.259,0.114l0.261,0.106l0.265,0.101l0.269,0.095l0.271,0.088l0.273,0.081l0.276,0.075l0.28,0.068l0.309,0.068l0.117,0.023l0.138,0.026l0.147,0.025l0.144,0.023l0.143,0.021l0.147,0.019l0.145,0.018l0.146,0.016l0.151,0.014l0.147,0.012l0.147,0.01l0.152,0.009l0.15,0.007l0.151,0.005l0.15,0.003l0.179,0.001l209.95,0l0.179,-0.001l0.15,-0.003l0.151,-0.005l0.151,-0.007l0.151,-0.009l0.148,-0.01l0.146,-0.012l0.151,-0.014l0.146,-0.016l0.145,-0.018l0.147,-0.019l0.143,-0.021l0.144,-0.023l0.147,-0.025l0.138,-0.026l0.117,-0.023l0.309,-0.068l0.28,-0.068l0.276,-0.075l0.273,-0.081l0.271,-0.088l0.269,-0.095l0.265,-0.101l0.261,-0.106l0.26,-0.114l0.255,-0.119l0.254,-0.126l0.247,-0.131l0.247,-0.138l0.243,-0.144l0.238,-0.149l0.236,-0.155l0.231,-0.16l0.227,-0.165l0.224,-0.172l0.218,-0.176l0.215,-0.182l0.212,-0.188l0.205,-0.191l0.201,-0.197l0.197,-0.201l0.191,-0.205l0.187,-0.211l0.182,-0.216l0.177,-0.218l0.171,-0.224l0.166,-0.227l0.16,-0.231l0.155,-0.236l0.15,-0.239l0.143,-0.241l0.137,-0.246l0.132,-0.25l0.125,-0.253l0.12,-0.256l0.113,-0.259l0.108,-0.262l0.101,-0.265l0.094,-0.268l0.088,-0.27l0.081,-0.274l0.076,-0.278l0.067,-0.278l0.067,-0.306l0.023,-0.116l0.027,-0.145l0.025,-0.144l0.022,-0.141l0.022,-0.146l0.019,-0.147l0.018,-0.148l0.016,-0.146l0.014,-0.145l0.012,-0.15l0.011,-0.147l0.008,-0.152l0.007,-0.15l0.005,-0.148l0.003,-0.156l0.001,-0.179l0,-209.944l-0.001,-0.179l-0.003,-0.156l-0.005,-0.148l-0.007,-0.151l-0.008,-0.151l-0.011,-0.148l-0.012,-0.149l-0.014,-0.144l-0.016,-0.147l-0.018,-0.148l-0.019,-0.147l-0.022,-0.146l-0.022,-0.141l-0.025,-0.144l-0.027,-0.145l-0.023,-0.116l-0.067,-0.306l-0.067,-0.278l-0.076,-0.278l-0.081,-0.274l-0.088,-0.27l-0.094,-0.268l-0.101,-0.265l-0.108,-0.262l-0.113,-0.26l-0.12,-0.255l-0.125,-0.254l-0.132,-0.249l-0.137,-0.245l-0.143,-0.242l-0.15,-0.239l-0.155,-0.236l-0.16,-0.231l-0.166,-0.227l-0.171,-0.224l-0.177,-0.218l-0.182,-0.216l-0.187,-0.211l-0.191,-0.205l-0.197,-0.201l-0.201,-0.197l-0.205,-0.191l-0.211,-0.187l-0.216,-0.182l-0.218,-0.177l-0.224,-0.171l-0.227,-0.166l-0.231,-0.16l-0.236,-0.155l-0.239,-0.15l-0.242,-0.143l-0.245,-0.137l-0.249,-0.132l-0.254,-0.125l-0.255,-0.12l-0.26,-0.113l-0.262,-0.108l-0.265,-0.101l-0.268,-0.094l-0.27,-0.088l-0.274,-0.081l-0.278,-0.076l-0.278,-0.067l-0.306,-0.067l-0.116,-0.023l-0.145,-0.027l-0.144,-0.025l-0.141,-0.022l-0.146,-0.022l-0.147,-0.019l-0.148,-0.018l-0.147,-0.016l-0.144,-0.014l-0.149,-0.012l-0.148,-0.011l-0.151,-0.008l-0.151,-0.007l-0.148,-0.005l-0.156,-0.003l-0.179,-0.001l-209.944,0Z" style="fill:#2e98e8;"/><rect x="129.167" y="70.313" width="79.123" height="8.333" style="fill:#64bbf1;"/><path d="M60.167,79.523l-10.898,-16.508l-5.51,3.621l10.898,16.508l5.51,-3.621Z" style="fill:#00af73;"/><path d="M93.033,57.413l-38.571,25.349l3.632,5.502l38.571,-25.349l-3.632,-5.502Z" style="fill:#00af73;"/><path d="M64.001,127.437l-11.374,-16.184l-5.402,3.78l11.374,16.184l5.402,-3.78Z" style="fill:#00af73;"/><path d="M96.209,104.378l-37.816,26.462l3.791,5.395l37.816,-26.463l-3.791,-5.394Z" style="fill:#00af73;"/><rect x="129.167" y="120.313" width="79.123" height="8.333" style="fill:#64bbf1;"/><rect x="129.167" y="174.48" width="79.123" height="8.333" style="fill:#64bbf1;"/><path d="M95.833,199.48l-41.666,0l0,-37.5l41.666,0l0,37.5Zm-34.579,-30.412l0,23.324l27.492,0l0,-23.324l-27.492,0Z" style="fill:#2e98e8;"/></svg>